<?xml version="1.0" encoding="utf-8"?>
<!-- Generator: Adobe Illustrator 16.0.0, SVG Export Plug-In . SVG Version: 6.00 Build 0)  -->
<!DOCTYPE svg PUBLIC "-//W3C//DTD SVG 1.1//EN" "http://www.w3.org/Graphics/SVG/1.1/DTD/svg11.dtd">
<svg version="1.1" id="Layer_1" xmlns="http://www.w3.org/2000/svg" xmlns:xlink="http://www.w3.org/1999/xlink" x="0px" y="0px"
	 width="120px" height="45px" viewBox="65 17.5 120 45" enable-background="new 65 17.5 120 45" xml:space="preserve">
<g id="Black">
	<title>Dinamic_Logo</title>
	<g id="Logo">
		<polygon fill="#FFBB00" points="89.5,37.6 83.9,50 90.5,56.6 96.1,44.3 101.7,32 		"/>
		<polygon fill="#55D292" points="82.8,31 70.5,36.6 77.2,43.2 89.5,37.6 95,25.4 		"/>
		<polygon opacity="0.2" fill="#BF360C" enable-background="new    " points="96.1,44.3 101.7,32 95,35.1 		"/>
		<path fill="#694C99" d="M89.7,37.8L89.7,37.8L89.7,37.8z"/>
		<polygon fill="#5B32BC" points="101.7,32 89.5,37.6 95,25.4 		"/>
		<polygon opacity="0.2" fill="#FFFFFF" enable-background="new    " points="70.9,36.7 94.3,26 94.3,26 94.8,25.8 95,25.4 82.8,31 
			70.5,36.6 70.5,36.6 		"/>
		<polygon opacity="0.2" fill="#263238" enable-background="new    " points="77.3,42.9 70.9,36.7 70.5,36.6 77.2,43.2 77.2,43.2 		
			"/>
		<polygon opacity="0.2" fill="#263238" enable-background="new    " points="77.3,42.9 77.2,43.2 89.5,37.6 89.6,37.3 89.2,37.5 		
			"/>
		<polygon opacity="0.2" fill="#FFFFFF" enable-background="new    " points="84.2,49.9 84.2,49.9 89.6,37.9 89.6,37.9 89.8,37.5 
			89.5,37.6 83.9,50 83.9,50 		"/>
		<polygon opacity="0.2" fill="#BF360C" enable-background="new    " points="96.1,44.3 101.7,32 101.3,32.2 101.1,32.6 101.1,32.6 
			90.4,56.1 90.4,56.1 90.4,56.1 90.5,56.6 90.5,56.6 		"/>
		<polygon opacity="0.2" fill="#BF360C" enable-background="new    " points="84.2,49.9 83.9,50 90.5,56.6 90.4,56.1 		"/>
		<polyline fill="none" points="95.1,25.9 90,37.1 90,37.1 90,37.1 101.2,32 101.2,32 		"/>
		<polyline fill="none" points="101.2,32 95.1,25.9 95.1,25.9 		"/>
		<polygon opacity="0.2" fill="#263238" enable-background="new    " points="95.1,25.9 101.2,32 101.7,32 95,25.4 		"/>
		<polyline opacity="0.2" fill="#FFFFFF" enable-background="new    " points="95.1,25.9 95,25.4 95,25.4 89.5,37.6 89.5,37.6 
			90,37.1 90,37.1 		"/>
		<polyline opacity="0.2" fill="#263238" enable-background="new    " points="89.5,37.6 101.7,32 101.7,32 101.2,32 101.2,32 
			90,37.1 		"/>
	</g>
	<g opacity="0.87" enable-background="new    ">
		<path d="M119.1,46.1c0,1.1-0.3,2-1,2.7c-0.7,0.7-1.6,1-2.8,1h-6V30.2h6c1.1,0,2.1,0.3,2.8,1c0.7,0.6,1,1.6,1,2.7V46.1z
			 M116.2,45.6V34.3c0-1.1-0.6-1.6-1.7-1.6h-2.2v14.6h2.1C115.6,47.2,116.2,46.7,116.2,45.6z"/>
		<path d="M124.2,35.3h-2.9v-2.9h2.9V35.3z M124.2,49.8h-2.8V37.1h2.8V49.8z"/>
		<path d="M136.4,49.8h-2.6l-4.7-12.4c0.2,0.6,0.2,1.1,0.2,1.4v11h-2.8V30.1h2.6l4.7,12.1c-0.1-0.6-0.2-1.1-0.2-1.4V30.1h2.8V49.8z"
			/>
		<path d="M148.7,49.8h-2.9l-0.6-3.7h-3.7l-0.6,3.7H138v0l3.8-19.6h3.1L148.7,49.8z M144.8,43.5l-1.4-8.9l-1.4,8.9H144.8z"/>
		<path d="M162.2,49.8h-2.8v-9.7c0-0.5,0-1.2,0.2-2.1l-2.5,10h-1.5L153,38c0.1,0.9,0.2,1.6,0.2,2.1v9.7h-2.8V30.1h2.8l3.1,10.9
			c0,0.1,0,0.4,0.1,0.9c0-0.2,0-0.5,0.1-0.9l3.1-10.9h2.8L162.2,49.8L162.2,49.8z"/>
		<path d="M167.6,49.8h-2.9V30.1h2.9V49.8z"/>
		<path d="M179.6,48c0,1.2-0.6,1.8-1.8,1.8h-6.1c-1.1,0-1.7-0.6-1.7-1.8v-16c0-1.2,0.6-1.8,1.7-1.8h6.1c1.2,0,1.8,0.6,1.8,1.8v4.6
			h-2.9v-3.9h-3.8v14.6h3.8v-4.1h2.9V48z"/>
	</g>
</g>
</svg>
